# xmcd CD database file
#
# Track frame offsets:
#	150
#	20970
#	44530
#	64097
#	85715
#
# Disc length: 1465 seconds
#
# Revision: 0
# Processed by: cddbd v1.5.1PL2 Copyright (c) Steve Scherf et al.
# Submitted via: CDex 1.51
#
DISCID=3e05b705
DTITLE=たびんちゅ - tabin-chu
DYEAR=2005
DGENRE=JPop
TTITLE0=晴れ晴れ
TTITLE1=夏あそび
TTITLE2=ともだち
TTITLE3=大切な人
TTITLE4=また会える日まで
EXTD=YEAR: 2005
EXTT0=
EXTT1=
EXTT2=
EXTT3=
EXTT4=
PLAYORDER=
